<!DOCTYPE svg PUBLIC "-//W3C//DTD SVG 20010904//EN" "http://www.w3.org/TR/2001/REC-SVG-20010904/DTD/svg10.dtd">
<svg version="1.0" xmlns="http://www.w3.org/2000/svg" width="997px" height="893px" viewBox="0 0 9970 8930" preserveAspectRatio="xMidYMid meet">
<g id="layer101" fill="#030202" stroke="none">
<path d="M0 4465 l0 -4465 4985 0 4985 0 0 4465 0 4465 -4985 0 -4985 0 0 -4465z"/>
</g>
<g id="layer102" fill="#97591e" stroke="none">
<path d="M4260 7584 c-206 -125 -242 -154 -503 -416 -243 -243 -353 -346 -457 -428 -74 -58 -120 -100 -243 -218 -130 -125 -223 -190 -355 -248 -48 -21 -265 -126 -482 -235 -217 -108 -447 -222 -510 -253 -126 -61 -231 -139 -298 -219 -58 -71 -126 -205 -157 -313 -39 -131 -32 -215 28 -363 25 -61 43 -111 41 -111 -3 0 -23 12 -45 26 -105 66 -223 113 -321 127 -46 7 -46 7 -19 -125 24 -118 75 -276 146 -447 30 -74 54 -136 52 -137 -1 -1 -48 16 -105 39 -56 22 -104 38 -107 35 -10 -9 17 -174 32 -198 28 -44 195 -200 263 -245 36 -23 90 -55 121 -71 l57 -27 68 49 c166 118 273 246 429 514 37 63 109 176 160 250 148 216 166 265 180 479 19 300 101 492 294 681 148 146 324 255 561 350 175 70 376 176 630 335 187 117 290 175 290 165 0 -5 -53 -87 -117 -182 -64 -95 -136 -202 -160 -238 -24 -36 -67 -111 -96 -168 l-52 -102 -100 -31 c-55 -17 -143 -51 -195 -77 -158 -77 -279 -216 -354 -405 -55 -137 -54 -226 4 -393 l31 -92 -60 -83 c-34 -46 -93 -147 -133 -224 -71 -140 -93 -177 -248 -440 -99 -168 -336 -638 -427 -848 -36 -84 -83 -190 -105 -237 -170 -361 -293 -692 -386 -1035 -51 -185 -102 -401 -102 -428 0 -13 -6 -30 -14 -36 -7 -6 -16 -28 -19 -49 -4 -20 -11 -57 -16 -82 -20 -90 -7 -402 17 -420 4 -3 16 -22 27 -43 26 -52 107 -124 175 -156 50 -23 67 -26 175 -26 l120 0 85 42 c189 92 363 215 436 309 l45 59 -48 6 c-71 8 -115 -3 -253 -66 -102 -47 -135 -58 -196 -62 -70 -6 -73 -5 -99 23 -15 16 -49 65 -77 109 -39 63 -48 86 -44 110 11 69 97 467 120 560 59 234 221 667 357 956 44 92 103 236 133 321 37 105 72 184 110 247 78 128 132 237 178 361 111 294 178 441 318 695 15 28 47 86 70 130 24 44 70 125 102 179 32 54 57 100 56 101 -2 1 -38 25 -81 55 -63 43 -85 66 -121 124 -65 104 -80 159 -73 264 6 99 26 154 85 229 45 56 107 93 228 133 l86 30 116 -60 c63 -33 118 -60 122 -60 4 0 50 84 103 188 53 103 143 262 200 353 121 193 180 310 237 464 22 61 62 145 88 188 l47 78 8 -38 c5 -21 6 -92 3 -158 -4 -94 -13 -149 -41 -255 -38 -145 -98 -417 -114 -515 -5 -33 -24 -96 -41 -140 -43 -107 -86 -233 -155 -450 -48 -149 -76 -216 -165 -390 -59 -115 -142 -293 -185 -395 -43 -102 -118 -275 -166 -386 -144 -330 -216 -523 -304 -824 -69 -233 -86 -323 -92 -485 -8 -224 19 -356 112 -550 58 -119 132 -230 203 -302 62 -63 344 -268 484 -352 48 -28 156 -85 240 -125 393 -189 539 -226 888 -226 349 0 495 37 888 226 84 40 192 97 240 125 140 84 422 289 484 352 71 72 145 183 203 302 93 194 120 326 112 550 -6 162 -23 252 -92 485 -88 301 -160 494 -304 824 -48 111 -123 284 -166 386 -43 102 -126 280 -185 395 -89 174 -117 241 -165 390 -69 217 -112 343 -155 450 -17 44 -36 107 -41 140 -16 98 -76 370 -114 515 -28 106 -37 161 -41 255 -3 66 -2 137 3 158 l8 38 47 -78 c26 -43 66 -127 88 -188 57 -154 116 -271 237 -464 57 -91 147 -250 200 -353 53 -104 99 -188 103 -188 9 0 200 99 217 112 15 12 154 -32 237 -75 110 -58 175 -167 183 -309 7 -105 -8 -160 -73 -264 -36 -58 -58 -81 -121 -124 -43 -30 -79 -54 -81 -56 -2 -1 14 -30 36 -65 52 -85 200 -357 301 -552 77 -149 115 -237 209 -487 47 -125 101 -234 178 -362 40 -64 73 -140 111 -248 30 -85 88 -227 130 -315 137 -289 307 -745 363 -975 21 -85 107 -489 116 -545 4 -24 -5 -47 -44 -110 -28 -44 -62 -93 -77 -109 -26 -28 -29 -29 -99 -23 -61 4 -94 15 -196 62 -138 63 -182 74 -253 66 l-48 -6 45 -59 c73 -94 247 -217 436 -309 l85 -42 120 0 c108 0 125 3 175 26 68 32 149 104 175 156 11 21 23 40 27 43 24 18 37 330 17 420 -5 25 -12 62 -16 82 -3 21 -12 43 -19 49 -8 6 -14 23 -14 36 0 27 -51 243 -102 428 -93 343 -216 674 -386 1035 -22 47 -69 153 -105 237 -91 210 -328 680 -427 848 -155 263 -177 300 -248 440 -40 77 -99 178 -133 224 l-60 83 31 92 c58 167 59 256 4 393 -75 191 -194 327 -354 405 -52 26 -140 60 -195 77 l-100 31 -52 102 c-29 57 -72 132 -96 168 -24 36 -96 143 -160 238 -64 95 -117 177 -117 182 0 10 97 -45 295 -168 263 -163 450 -262 625 -332 237 -95 413 -204 561 -350 193 -189 275 -381 294 -681 13 -200 40 -280 146 -429 70 -97 140 -207 224 -350 136 -230 239 -350 399 -465 l69 -49 72 37 c94 49 145 86 247 178 117 107 135 136 147 238 6 47 9 87 6 89 -3 3 -51 -13 -107 -35 -57 -23 -104 -40 -105 -39 -2 1 22 63 52 137 71 171 122 329 146 447 27 132 27 132 -18 125 -99 -14 -217 -61 -322 -127 -22 -14 -42 -26 -45 -26 -2 0 16 50 41 111 60 148 67 232 28 363 -31 108 -99 242 -157 313 -67 80 -172 158 -298 219 -63 31 -293 145 -510 253 -217 109 -434 214 -482 235 -132 58 -225 123 -355 248 -123 118 -169 160 -243 218 -104 82 -214 185 -457 428 -214 214 -275 270 -358 324 -141 91 -225 141 -231 135 -3 -3 -12 -34 -20 -68 -30 -131 -42 -157 -79 -169 -55 -18 -183 -47 -284 -65 -220 -38 -558 -10 -786 65 -39 13 -50 39 -89 213 -4 15 -10 27 -14 27 -4 0 -41 -21 -82 -46z"/>
</g>
<g id="layer103" fill="#b27242" stroke="none">
<path d="M4260 7584 c-209 -127 -240 -153 -525 -439 -154 -154 -314 -307 -355 -340 -41 -33 -77 -62 -80 -65 -3 -3 -27 -23 -55 -45 -27 -22 -108 -96 -180 -164 -141 -135 -229 -198 -363 -257 -48 -21 -238 -114 -422 -207 -443 -224 -441 -223 -470 -232 -56 -16 -221 -110 -286 -161 -38 -31 -88 -79 -112 -107 -58 -71 -126 -205 -157 -313 -39 -131 -32 -215 28 -363 25 -61 43 -111 41 -111 -3 0 -23 12 -45 26 -105 66 -223 113 -321 127 -46 7 -46 7 -19 -125 24 -118 75 -276 146 -447 30 -74 54 -136 52 -137 -1 -1 -48 16 -105 39 -56 22 -104 38 -107 35 -10 -10 17 -174 32 -198 29 -44 196 -200 265 -246 36 -24 92 -56 123 -69 l56 -25 32 22 c195 135 297 254 462 538 37 63 109 176 160 250 148 216 166 265 180 479 19 300 101 492 294 681 148 146 324 255 561 350 175 70 362 169 625 332 198 123 295 178 295 168 0 -5 -53 -87 -117 -182 -190 -281 -200 -297 -255 -405 l-53 -103 -100 -31 c-55 -17 -143 -51 -195 -77 -158 -77 -279 -216 -354 -405 -55 -138 -54 -226 4 -395 l32 -92 -30 -38 c-50 -63 -99 -145 -193 -323 -49 -94 -112 -205 -138 -247 -96 -155 -172 -293 -310 -569 -120 -241 -142 -292 -152 -355 -13 -83 -6 -165 18 -211 20 -41 92 -134 130 -169 l29 -28 19 53 c33 94 100 229 182 367 102 172 146 259 195 390 111 294 178 441 318 695 15 28 47 86 70 130 24 44 70 125 102 179 32 54 57 100 56 101 -2 1 -37 25 -80 53 -63 43 -84 64 -121 124 -66 106 -81 160 -74 266 6 99 26 154 85 229 49 61 105 91 289 154 166 56 246 96 348 175 110 84 109 83 218 257 120 190 180 308 237 462 22 61 62 145 88 188 l47 78 8 -38 c5 -21 6 -92 3 -158 -4 -94 -13 -149 -41 -255 -39 -148 -98 -418 -115 -520 -5 -36 -28 -110 -50 -165 -21 -55 -67 -185 -101 -290 -102 -316 -98 -306 -266 -640 -49 -99 -116 -243 -148 -320 -32 -77 -97 -230 -146 -341 -144 -329 -215 -522 -304 -824 -69 -233 -86 -323 -92 -485 -8 -226 19 -359 114 -550 24 -49 48 -94 52 -98 13 -13 119 111 154 178 17 33 48 98 69 145 21 47 43 94 48 105 25 54 126 302 200 495 400 1040 677 2036 824 2965 93 588 132 1029 106 1207 l-12 86 -95 23 c-113 27 -109 21 -157 232 -4 15 -10 27 -14 27 -4 -1 -41 -21 -82 -46z"/>
<path d="M5604 7603 c-47 -208 -46 -206 -144 -229 -45 -10 -88 -23 -96 -29 -41 -31 -42 -305 -4 -645 126 -1120 362 -2106 788 -3285 129 -359 360 -923 436 -1065 39 -72 144 -196 157 -183 4 4 28 49 52 98 95 191 122 324 114 550 -6 162 -23 252 -92 485 -89 302 -160 495 -304 824 -49 111 -114 264 -146 341 -32 77 -99 221 -148 320 -168 334 -164 324 -266 640 -34 105 -80 235 -101 290 -22 55 -45 129 -50 165 -17 102 -76 372 -115 520 -28 106 -37 161 -41 255 -3 66 -2 137 3 158 l8 38 47 -78 c26 -43 67 -130 90 -193 55 -151 117 -270 239 -465 88 -139 111 -168 174 -220 108 -89 216 -146 377 -200 185 -62 251 -97 299 -158 60 -75 80 -130 86 -229 7 -106 -8 -160 -74 -266 -37 -60 -58 -81 -121 -124 -43 -28 -78 -52 -80 -53 -1 -1 24 -47 56 -101 32 -54 78 -135 102 -179 23 -44 55 -102 70 -130 140 -254 207 -401 318 -695 49 -130 92 -218 192 -386 95 -159 122 -211 170 -331 l37 -92 40 42 c50 53 95 112 119 157 16 29 19 55 18 145 l-1 110 -148 295 c-144 288 -219 426 -316 582 -26 42 -89 153 -138 247 -94 178 -143 260 -193 323 l-30 38 32 92 c58 169 59 257 4 395 -75 191 -194 327 -354 405 -52 26 -140 60 -195 77 l-100 31 -53 103 c-55 108 -65 124 -255 405 -64 95 -117 177 -117 182 0 10 97 -45 295 -168 263 -163 450 -262 625 -332 237 -95 413 -204 561 -350 193 -189 275 -381 294 -681 13 -200 40 -280 146 -429 70 -98 140 -208 224 -350 142 -241 246 -359 433 -489 l32 -22 73 35 c91 44 143 81 250 180 118 108 134 133 146 235 6 47 9 87 6 89 -3 3 -51 -13 -107 -35 -57 -23 -104 -40 -105 -39 -2 1 22 63 52 137 71 171 122 329 146 447 27 132 27 132 -18 125 -99 -14 -217 -61 -322 -127 -22 -14 -42 -26 -45 -26 -2 0 16 50 41 111 60 148 67 232 28 363 -31 108 -99 242 -157 313 -24 28 -74 76 -112 107 -65 51 -230 145 -286 161 -29 9 -27 8 -470 232 -184 93 -374 186 -422 207 -134 59 -222 122 -363 257 -72 68 -153 142 -180 164 -28 22 -52 42 -55 45 -3 3 -39 32 -80 65 -41 33 -201 186 -355 340 -164 164 -307 299 -345 324 -73 50 -256 161 -264 161 -3 0 -8 -12 -12 -27z"/>
<path d="M1450 1223 c0 -77 17 -204 28 -213 4 -3 16 -22 27 -43 26 -52 107 -124 175 -156 50 -23 67 -26 175 -26 117 0 122 1 195 36 180 86 375 223 441 308 59 78 62 74 -37 69 -83 -4 -97 -8 -213 -62 -104 -49 -136 -59 -197 -63 -70 -6 -73 -5 -99 23 -15 16 -50 66 -78 112 l-50 82 -184 0 -183 0 0 -67z"/>
<path d="M8093 1208 c-28 -46 -63 -96 -78 -112 -26 -28 -29 -29 -99 -23 -61 4 -93 14 -197 63 -116 54 -130 58 -213 62 -99 5 -96 9 -37 -69 66 -85 261 -222 441 -308 73 -35 78 -36 195 -36 108 0 125 3 175 26 68 32 149 104 175 156 11 21 23 40 27 43 11 9 28 136 28 213 l0 67 -183 0 -184 0 -50 -82z"/>
</g>
<g id="layer104" fill="#ecba86" stroke="none">
<path d="M3755 6096 l-90 -43 -40 -82 -39 -81 -101 -31 c-55 -17 -143 -51 -195 -77 -158 -77 -279 -216 -354 -405 -55 -138 -54 -226 4 -394 l31 -92 -47 -63 c-25 -35 -59 -88 -75 -120 l-28 -56 107 -45 c78 -33 110 -42 120 -35 25 21 112 160 123 197 18 59 5 99 -73 222 -96 154 -112 200 -105 314 6 102 25 156 85 232 49 61 105 91 289 154 161 55 243 95 343 169 116 86 172 156 164 204 -10 61 -14 76 -22 76 -4 -1 -47 -20 -97 -44z"/>
<path d="M6096 6118 c-15 -72 -14 -84 11 -123 33 -52 149 -147 251 -206 45 -25 143 -67 224 -94 185 -62 251 -97 299 -158 61 -76 80 -130 86 -232 7 -114 -9 -160 -105 -314 -39 -62 -74 -129 -78 -148 -9 -49 9 -102 62 -180 76 -113 63 -109 186 -56 l107 45 -28 56 c-16 32 -50 85 -75 120 l-47 63 31 92 c58 168 59 256 4 394 -75 191 -194 327 -354 405 -52 26 -140 60 -195 77 l-101 31 -39 81 -40 82 -92 44 c-51 24 -95 43 -98 43 -2 0 -7 -10 -9 -22z"/>
<path d="M2235 5979 c-27 -11 -144 -51 -258 -89 -378 -126 -536 -237 -652 -461 -24 -47 -56 -125 -70 -175 -39 -131 -32 -215 28 -363 25 -61 43 -111 41 -111 -3 0 -23 12 -45 26 -105 66 -223 113 -322 127 -45 7 -45 7 -18 -125 24 -118 75 -276 146 -447 30 -74 54 -136 52 -137 -1 -1 -45 15 -97 36 -121 50 -123 50 -116 3 3 -21 8 -62 12 -91 5 -44 14 -63 54 -111 41 -50 58 -62 120 -85 39 -14 77 -26 83 -26 7 0 26 58 46 143 84 346 142 517 256 752 154 316 322 569 562 847 97 114 220 266 237 296 10 16 0 15 -59 -9z"/>
<path d="M7666 5988 c17 -30 140 -182 237 -296 240 -278 408 -531 562 -847 116 -239 169 -395 256 -752 21 -87 39 -143 46 -143 29 0 150 53 175 77 58 55 76 94 87 182 6 47 9 87 6 89 -3 3 -51 -13 -107 -35 -57 -23 -104 -40 -105 -39 -2 1 22 63 52 137 71 171 122 329 146 447 27 132 27 132 -18 125 -99 -14 -217 -61 -322 -127 -22 -14 -42 -26 -45 -26 -2 0 16 50 41 111 60 148 67 232 28 363 -31 108 -99 242 -157 313 -109 131 -274 228 -537 313 -97 32 -213 72 -259 89 -95 35 -96 35 -86 19z"/>
</g>
<g id="layer105" fill="#f0cfaa" stroke="none">
<path d="M4260 7584 c-207 -126 -240 -154 -525 -439 -154 -155 -314 -308 -356 -341 l-76 -60 15 -30 c13 -28 49 -55 177 -134 35 -22 52 -25 130 -25 80 0 97 4 157 32 202 95 380 307 564 676 l65 130 -24 91 c-14 50 -28 103 -31 119 -4 15 -10 27 -14 27 -4 -1 -41 -21 -82 -46z"/>
<path d="M5604 7603 c-3 -16 -17 -69 -31 -119 l-24 -91 65 -130 c184 -369 362 -581 564 -676 60 -28 77 -32 157 -32 78 0 95 3 130 25 128 79 164 106 177 134 l15 30 -76 60 c-42 33 -202 186 -356 341 -162 162 -307 299 -345 324 -72 49 -256 161 -264 161 -3 0 -8 -12 -12 -27z"/>
<path d="M3200 5128 c-35 -95 -36 -91 42 -103 45 -7 45 -6 52 25 12 62 8 75 -29 93 -48 23 -51 22 -65 -15z"/>
<path d="M6693 5143 c-35 -17 -39 -32 -27 -93 7 -31 7 -32 52 -25 74 11 73 9 50 76 -11 32 -25 59 -31 58 -7 0 -27 -8 -44 -16z"/>
<path d="M1450 1223 c0 -77 17 -204 28 -213 4 -3 16 -22 27 -43 26 -52 107 -124 175 -156 50 -23 67 -26 175 -26 117 0 122 1 195 36 189 91 374 222 448 318 l43 56 -63 3 c-76 4 -111 -6 -252 -70 -89 -40 -123 -51 -182 -55 -70 -6 -73 -5 -99 23 -15 16 -50 66 -78 112 l-50 82 -184 0 -183 0 0 -67z"/>
<path d="M8093 1208 c-28 -46 -63 -96 -78 -112 -26 -28 -29 -29 -99 -23 -59 4 -93 15 -182 55 -141 64 -176 74 -252 70 l-63 -3 43 -56 c74 -96 259 -227 448 -318 73 -35 78 -36 195 -36 108 0 125 3 175 26 68 32 149 104 175 156 11 21 23 40 27 43 11 9 28 136 28 213 l0 67 -183 0 -184 0 -50 -82z"/>
</g>
<g id="layer106" fill="#ffffff" stroke="none">
<path d="M0 4465 l0 -4465 4985 0 4985 0 0 4465 0 4465 -4985 0 -4985 0 0 -4465z m5141 3904 c145 -37 321 -116 455 -205 29 -19 102 -79 161 -132 60 -53 169 -146 243 -206 85 -69 282 -254 530 -501 379 -375 483 -471 670 -617 47 -37 130 -103 185 -148 123 -99 227 -163 376 -229 244 -107 328 -122 664 -114 255 6 352 -6 471 -62 84 -38 138 -90 181 -172 59 -113 68 -154 67 -318 0 -148 -9 -203 -60 -384 -7 -22 -5 -23 27 -16 60 13 153 61 212 110 l59 48 -4 -179 -4 -179 -45 -130 c-26 -71 -79 -206 -118 -299 -39 -93 -70 -171 -67 -173 2 -3 57 1 121 7 64 7 118 11 120 8 7 -7 -23 -138 -51 -223 -37 -114 -105 -249 -244 -490 -141 -242 -185 -308 -291 -425 -87 -98 -109 -135 -109 -185 0 -44 55 -196 171 -471 127 -303 165 -440 209 -769 12 -88 30 -207 40 -265 49 -268 50 -409 6 -591 -36 -144 -80 -228 -165 -316 -119 -121 -285 -201 -441 -211 -65 -4 -88 0 -169 27 -264 88 -521 227 -746 401 -114 89 -192 170 -282 298 -113 158 -218 271 -312 335 -22 15 -27 15 -64 -5 -23 -11 -86 -64 -141 -117 -164 -157 -444 -330 -716 -443 -364 -150 -498 -190 -760 -229 -348 -51 -759 -17 -1080 91 -175 58 -483 186 -585 243 -227 126 -378 230 -491 338 -55 53 -118 106 -141 117 -37 20 -42 20 -64 5 -94 -64 -199 -177 -312 -335 -90 -128 -168 -209 -282 -298 -225 -174 -482 -313 -746 -401 -81 -27 -104 -31 -169 -27 -156 10 -322 90 -441 211 -85 88 -129 172 -165 316 -44 182 -43 323 6 591 10 58 28 177 40 265 44 329 82 466 209 769 116 275 171 427 171 471 0 50 -22 87 -109 185 -106 117 -150 183 -291 425 -139 241 -207 376 -244 490 -28 85 -58 216 -51 223 2 3 56 -1 120 -8 64 -6 119 -10 121 -7 3 2 -28 80 -67 173 -39 93 -92 228 -118 299 l-45 130 -4 179 -4 179 59 -48 c59 -49 152 -97 212 -110 32 -7 34 -6 27 16 -51 181 -60 236 -60 384 -1 164 8 205 67 318 43 82 97 134 181 172 119 56 216 68 471 62 336 -8 420 7 664 114 149 66 253 130 376 229 55 45 138 111 185 148 187 146 291 242 670 617 248 247 445 432 530 501 74 60 183 153 243 206 154 138 276 214 455 285 210 82 320 94 483 52z"/>
</g>


</svg>